<svg width="80" height="18" fill="none" xmlns="http://www.w3.org/2000/svg"><path fill-rule="evenodd" clip-rule="evenodd" d="M20.48 6.902h4.697v7.337h.034c1.854 0 3.358-1.595 3.358-3.564V6.902h4.826V3.856H20.48v3.046ZM42.963 11.193h-3.227c-1.126 0-2.099-.916-2.152-2.11-.056-1.27.901-2.321 2.085-2.321h3.228c1.126 0 2.099.916 2.151 2.11.056 1.27-.901 2.32-2.085 2.32Zm.797-7.477h-4.889c-2.726 0-4.957 2.367-4.957 5.261s2.23 5.262 4.957 5.262h4.89c2.726 0 4.956-2.368 4.956-5.262 0-2.894-2.23-5.261-4.957-5.261ZM74.246 11.193H71.02c-1.126 0-2.099-.916-2.151-2.11-.056-1.27.9-2.321 2.085-2.321h3.227c1.126 0 2.099.916 2.151 2.11.056 1.27-.9 2.32-2.085 2.32Zm.797-7.477h-4.889c-2.726 0-4.957 2.367-4.957 5.261s2.23 5.262 4.957 5.262h4.89C77.77 14.24 80 11.871 80 8.977c0-2.894-2.231-5.261-4.958-5.261ZM59.747 7.603c0 .527-.407.96-.904.96h-4.575v-1.94h4.575c.497 0 .904.433.904.96v.02Zm3.435.157a3.876 3.876 0 0 0-1.044-2.662c-.643-.682-1.53-1.106-2.506-1.106h-9.148V14.1h3.653v-2.492h3.861l1.355 2.492h3.829l-1.643-3.166c.986-.672 1.643-1.845 1.643-3.174ZM7.436 17.231v-4.133c0-.045-.048-.07-.081-.044-1.932 1.522-4.13 2.909-6.549 4.129-.049.024-.032.102.022.102h6.557c.028 0 .05-.024.05-.054Z" fill="#fff"/><mask id="a" style="mask-type:alpha" maskUnits="userSpaceOnUse" x="0" y="0" width="16" height="12"><path fill-rule="evenodd" clip-rule="evenodd" d="M0 6.059V.669h15.271v10.78H0v-5.39Z" fill="#fff"/></mask><g mask="url(#a)"><path fill-rule="evenodd" clip-rule="evenodd" d="M15.262.755c.024-.036 0-.086-.042-.086H5.262C2.356.67 0 3.15 0 6.21v5.185c0 .037.034.063.067.051C6.861 9.017 12.27 5.228 15.262.755Z" fill="#fff"/></g><path fill-rule="evenodd" clip-rule="evenodd" d="M10.176 10.684v6.547c0 .03.023.054.05.054h.167c2.906 0 5.262-2.48 5.262-5.539v-9.55c0-.062-.08-.076-.1-.019-.983 3.019-2.826 5.886-5.364 8.468a.055.055 0 0 0-.015.039Z" fill="#fff"/></svg>